<svg xmlns="http://www.w3.org/2000/svg" viewBox="0 0 800 400" fill="none">
  <defs>
    <linearGradient id="priceGrad" x1="0%" y1="0%" x2="100%" y2="100%">
      <stop offset="0%" stop-color="#2563EB"/>
      <stop offset="100%" stop-color="#6366F1"/>
    </linearGradient>
  </defs>

  <!-- Background -->
  <rect width="800" height="400" rx="16" fill="#F8FAFC"/>

  <!-- Card 1: Starter -->
  <rect x="40" y="40" width="220" height="320" rx="12" fill="white" stroke="#E2E8F0" stroke-width="1.5"/>
  <text x="150" y="76" font-family="system-ui, sans-serif" font-size="14" font-weight="700" fill="#0F172A" text-anchor="middle">Starter</text>
  <text x="150" y="96" font-family="system-ui, sans-serif" font-size="11" fill="#64748B" text-anchor="middle">For small teams</text>

  <text x="150" y="136" font-family="system-ui, sans-serif" font-size="32" font-weight="800" fill="#0F172A" text-anchor="middle">$49</text>
  <text x="150" y="154" font-family="system-ui, sans-serif" font-size="11" fill="#64748B" text-anchor="middle">/month per user</text>

  <line x1="64" y1="170" x2="236" y2="170" stroke="#E2E8F0" stroke-width="1"/>

  <!-- Features -->
  <circle cx="72" cy="196" r="6" fill="#DCFCE7"/>
  <path d="M69 196L71 198L75 194" stroke="#16A34A" stroke-width="1.2" fill="none"/>
  <text x="86" y="200" font-family="system-ui, sans-serif" font-size="10" fill="#0F172A">100 documents/month</text>

  <circle cx="72" cy="222" r="6" fill="#DCFCE7"/>
  <path d="M69 222L71 224L75 220" stroke="#16A34A" stroke-width="1.2" fill="none"/>
  <text x="86" y="226" font-family="system-ui, sans-serif" font-size="10" fill="#0F172A">5 templates</text>

  <circle cx="72" cy="248" r="6" fill="#DCFCE7"/>
  <path d="M69 248L71 250L75 246" stroke="#16A34A" stroke-width="1.2" fill="none"/>
  <text x="86" y="252" font-family="system-ui, sans-serif" font-size="10" fill="#0F172A">CSV &amp; Excel export</text>

  <circle cx="72" cy="274" r="6" fill="#FEE2E2"/>
  <line x1="69" y1="274" x2="75" y2="274" stroke="#EF4444" stroke-width="1.5"/>
  <text x="86" y="278" font-family="system-ui, sans-serif" font-size="10" fill="#94A3B8">LLM Q&amp;A</text>

  <circle cx="72" cy="300" r="6" fill="#FEE2E2"/>
  <line x1="69" y1="300" x2="75" y2="300" stroke="#EF4444" stroke-width="1.5"/>
  <text x="86" y="304" font-family="system-ui, sans-serif" font-size="10" fill="#94A3B8">API access</text>

  <!-- CTA -->
  <rect x="64" y="322" width="172" height="28" rx="6" fill="white" stroke="#E2E8F0" stroke-width="1.5"/>
  <text x="150" y="340" font-family="system-ui, sans-serif" font-size="11" font-weight="600" fill="#0F172A" text-anchor="middle">Get Started</text>

  <!-- Card 2: Professional (highlighted) -->
  <rect x="290" y="24" width="220" height="352" rx="12" fill="white" stroke="url(#priceGrad)" stroke-width="2"/>
  <!-- Popular badge -->
  <rect x="356" y="10" width="88" height="24" rx="12" fill="url(#priceGrad)"/>
  <text x="400" y="26" font-family="system-ui, sans-serif" font-size="10" font-weight="700" fill="white" text-anchor="middle">POPULAR</text>

  <text x="400" y="64" font-family="system-ui, sans-serif" font-size="14" font-weight="700" fill="#0F172A" text-anchor="middle">Professional</text>
  <text x="400" y="84" font-family="system-ui, sans-serif" font-size="11" fill="#64748B" text-anchor="middle">For growing businesses</text>

  <text x="400" y="124" font-family="system-ui, sans-serif" font-size="32" font-weight="800" fill="#2563EB" text-anchor="middle">$149</text>
  <text x="400" y="142" font-family="system-ui, sans-serif" font-size="11" fill="#64748B" text-anchor="middle">/month per user</text>

  <line x1="314" y1="158" x2="486" y2="158" stroke="#E2E8F0" stroke-width="1"/>

  <!-- Features -->
  <circle cx="322" cy="184" r="6" fill="#DCFCE7"/>
  <path d="M319 184L321 186L325 182" stroke="#16A34A" stroke-width="1.2" fill="none"/>
  <text x="336" y="188" font-family="system-ui, sans-serif" font-size="10" fill="#0F172A">Unlimited documents</text>

  <circle cx="322" cy="210" r="6" fill="#DCFCE7"/>
  <path d="M319 210L321 212L325 208" stroke="#16A34A" stroke-width="1.2" fill="none"/>
  <text x="336" y="214" font-family="system-ui, sans-serif" font-size="10" fill="#0F172A">25 templates</text>

  <circle cx="322" cy="236" r="6" fill="#DCFCE7"/>
  <path d="M319 236L321 238L325 234" stroke="#16A34A" stroke-width="1.2" fill="none"/>
  <text x="336" y="240" font-family="system-ui, sans-serif" font-size="10" fill="#0F172A">All export formats</text>

  <circle cx="322" cy="262" r="6" fill="#DCFCE7"/>
  <path d="M319 262L321 264L325 260" stroke="#16A34A" stroke-width="1.2" fill="none"/>
  <text x="336" y="266" font-family="system-ui, sans-serif" font-size="10" fill="#0F172A">LLM Q&amp;A included</text>

  <circle cx="322" cy="288" r="6" fill="#DCFCE7"/>
  <path d="M319 288L321 290L325 286" stroke="#16A34A" stroke-width="1.2" fill="none"/>
  <text x="336" y="292" font-family="system-ui, sans-serif" font-size="10" fill="#0F172A">Context Roles</text>

  <circle cx="322" cy="314" r="6" fill="#FEE2E2"/>
  <line x1="319" y1="314" x2="325" y2="314" stroke="#EF4444" stroke-width="1.5"/>
  <text x="336" y="318" font-family="system-ui, sans-serif" font-size="10" fill="#94A3B8">Custom integrations</text>

  <!-- CTA -->
  <rect x="314" y="336" width="172" height="28" rx="6" fill="url(#priceGrad)"/>
  <text x="400" y="354" font-family="system-ui, sans-serif" font-size="11" font-weight="600" fill="white" text-anchor="middle">Start Free Trial</text>

  <!-- Card 3: Enterprise -->
  <rect x="540" y="40" width="220" height="320" rx="12" fill="white" stroke="#E2E8F0" stroke-width="1.5"/>
  <text x="650" y="76" font-family="system-ui, sans-serif" font-size="14" font-weight="700" fill="#0F172A" text-anchor="middle">Enterprise</text>
  <text x="650" y="96" font-family="system-ui, sans-serif" font-size="11" fill="#64748B" text-anchor="middle">For large organizations</text>

  <text x="650" y="136" font-family="system-ui, sans-serif" font-size="24" font-weight="800" fill="#0F172A" text-anchor="middle">Custom</text>
  <text x="650" y="154" font-family="system-ui, sans-serif" font-size="11" fill="#64748B" text-anchor="middle">Contact for pricing</text>

  <line x1="564" y1="170" x2="736" y2="170" stroke="#E2E8F0" stroke-width="1"/>

  <!-- Features -->
  <circle cx="572" cy="196" r="6" fill="#DCFCE7"/>
  <path d="M569 196L571 198L575 194" stroke="#16A34A" stroke-width="1.2" fill="none"/>
  <text x="586" y="200" font-family="system-ui, sans-serif" font-size="10" fill="#0F172A">Everything in Pro</text>

  <circle cx="572" cy="222" r="6" fill="#DCFCE7"/>
  <path d="M569 222L571 224L575 220" stroke="#16A34A" stroke-width="1.2" fill="none"/>
  <text x="586" y="226" font-family="system-ui, sans-serif" font-size="10" fill="#0F172A">Custom integrations</text>

  <circle cx="572" cy="248" r="6" fill="#DCFCE7"/>
  <path d="M569 248L571 250L575 246" stroke="#16A34A" stroke-width="1.2" fill="none"/>
  <text x="586" y="252" font-family="system-ui, sans-serif" font-size="10" fill="#0F172A">SSO &amp; SAML</text>

  <circle cx="572" cy="274" r="6" fill="#DCFCE7"/>
  <path d="M569 274L571 276L575 272" stroke="#16A34A" stroke-width="1.2" fill="none"/>
  <text x="586" y="278" font-family="system-ui, sans-serif" font-size="10" fill="#0F172A">Dedicated support</text>

  <circle cx="572" cy="300" r="6" fill="#DCFCE7"/>
  <path d="M569 300L571 302L575 298" stroke="#16A34A" stroke-width="1.2" fill="none"/>
  <text x="586" y="304" font-family="system-ui, sans-serif" font-size="10" fill="#0F172A">SLA guarantee</text>

  <!-- CTA -->
  <rect x="564" y="322" width="172" height="28" rx="6" fill="white" stroke="#E2E8F0" stroke-width="1.5"/>
  <text x="650" y="340" font-family="system-ui, sans-serif" font-size="11" font-weight="600" fill="#0F172A" text-anchor="middle">Contact Sales</text>
</svg>
