<svg xmlns="http://www.w3.org/2000/svg" viewBox="0 0 800 500" fill="none">
  <defs>
    <linearGradient id="grad1" x1="0%" y1="0%" x2="100%" y2="100%">
      <stop offset="0%" stop-color="#2563EB"/>
      <stop offset="100%" stop-color="#6366F1"/>
    </linearGradient>
  </defs>

  <!-- Window frame -->
  <rect width="800" height="500" rx="12" fill="#F8FAFC" stroke="#E2E8F0" stroke-width="1"/>

  <!-- Top bar -->
  <rect width="800" height="44" rx="12" fill="white"/>
  <circle cx="24" cy="22" r="5" fill="#EF4444"/>
  <circle cx="42" cy="22" r="5" fill="#F59E0B"/>
  <circle cx="60" cy="22" r="5" fill="#22C55E"/>
  <rect x="120" y="12" width="300" height="20" rx="6" fill="#F1F5F9"/>
  <line x1="0" y1="44" x2="800" y2="44" stroke="#E2E8F0" stroke-width="1"/>

  <!-- Sidebar -->
  <rect y="44" width="180" height="456" fill="white"/>
  <line x1="180" y1="44" x2="180" y2="500" stroke="#E2E8F0" stroke-width="1"/>
  <rect x="16" y="60" width="148" height="28" rx="6" fill="url(#grad1)" opacity="0.08"/>
  <text x="40" y="78" font-family="system-ui, sans-serif" font-size="12" font-weight="700" fill="#2563EB">LNA Platform</text>
  <rect x="16" y="100" width="148" height="28" rx="6" fill="#2563EB" opacity="0.08"/>
  <text x="40" y="118" font-family="system-ui, sans-serif" font-size="11" font-weight="600" fill="#2563EB">Dashboard</text>
  <text x="40" y="150" font-family="system-ui, sans-serif" font-size="11" fill="#64748B">Documents</text>
  <text x="40" y="176" font-family="system-ui, sans-serif" font-size="11" fill="#64748B">Templates</text>
  <text x="40" y="202" font-family="system-ui, sans-serif" font-size="11" fill="#64748B">Exports</text>
  <text x="40" y="228" font-family="system-ui, sans-serif" font-size="11" fill="#64748B">Analytics</text>

  <!-- Main content -->
  <text x="204" y="80" font-family="system-ui, sans-serif" font-size="18" font-weight="700" fill="#0F172A">Dashboard Overview</text>

  <!-- Metric cards row -->
  <rect x="204" y="96" width="142" height="76" rx="10" fill="white" stroke="#E2E8F0" stroke-width="1"/>
  <text x="220" y="118" font-family="system-ui, sans-serif" font-size="10" fill="#64748B">Total Documents</text>
  <text x="220" y="146" font-family="system-ui, sans-serif" font-size="24" font-weight="700" fill="#0F172A">1,247</text>
  <text x="300" y="146" font-family="system-ui, sans-serif" font-size="10" fill="#22C55E">+12%</text>

  <rect x="358" y="96" width="142" height="76" rx="10" fill="white" stroke="#E2E8F0" stroke-width="1"/>
  <text x="374" y="118" font-family="system-ui, sans-serif" font-size="10" fill="#64748B">Fields Extracted</text>
  <text x="374" y="146" font-family="system-ui, sans-serif" font-size="24" font-weight="700" fill="#0F172A">8,432</text>
  <text x="454" y="146" font-family="system-ui, sans-serif" font-size="10" fill="#22C55E">+8%</text>

  <rect x="512" y="96" width="142" height="76" rx="10" fill="white" stroke="#E2E8F0" stroke-width="1"/>
  <text x="528" y="118" font-family="system-ui, sans-serif" font-size="10" fill="#64748B">Avg Accuracy</text>
  <text x="528" y="146" font-family="system-ui, sans-serif" font-size="24" font-weight="700" fill="#22C55E">98.7%</text>

  <rect x="666" y="96" width="114" height="76" rx="10" fill="white" stroke="#E2E8F0" stroke-width="1"/>
  <text x="682" y="118" font-family="system-ui, sans-serif" font-size="10" fill="#64748B">Processing</text>
  <text x="682" y="146" font-family="system-ui, sans-serif" font-size="24" font-weight="700" fill="#F59E0B">3</text>

  <!-- Recent documents table -->
  <rect x="204" y="188" width="380" height="290" rx="10" fill="white" stroke="#E2E8F0" stroke-width="1"/>
  <text x="220" y="214" font-family="system-ui, sans-serif" font-size="13" font-weight="600" fill="#0F172A">Recent Documents</text>

  <rect x="204" y="226" width="380" height="28" fill="#F8FAFC"/>
  <text x="220" y="244" font-family="system-ui, sans-serif" font-size="9" font-weight="600" fill="#64748B">NAME</text>
  <text x="380" y="244" font-family="system-ui, sans-serif" font-size="9" font-weight="600" fill="#64748B">STATUS</text>
  <text x="480" y="244" font-family="system-ui, sans-serif" font-size="9" font-weight="600" fill="#64748B">DATE</text>

  <text x="220" y="276" font-family="system-ui, sans-serif" font-size="10" fill="#0F172A">Invoice_2024_001.pdf</text>
  <rect x="380" y="266" width="58" height="18" rx="9" fill="#DCFCE7"/>
  <text x="392" y="279" font-family="system-ui, sans-serif" font-size="9" fill="#16A34A">Complete</text>
  <text x="480" y="276" font-family="system-ui, sans-serif" font-size="10" fill="#64748B">Mar 10</text>

  <text x="220" y="306" font-family="system-ui, sans-serif" font-size="10" fill="#0F172A">Contract_NDA.docx</text>
  <rect x="380" y="296" width="58" height="18" rx="9" fill="#DCFCE7"/>
  <text x="392" y="309" font-family="system-ui, sans-serif" font-size="9" fill="#16A34A">Complete</text>
  <text x="480" y="306" font-family="system-ui, sans-serif" font-size="10" fill="#64748B">Mar 9</text>

  <text x="220" y="336" font-family="system-ui, sans-serif" font-size="10" fill="#0F172A">Report_Q4.pdf</text>
  <rect x="380" y="326" width="68" height="18" rx="9" fill="#FEF3C7"/>
  <text x="392" y="339" font-family="system-ui, sans-serif" font-size="9" fill="#D97706">Processing</text>
  <text x="480" y="336" font-family="system-ui, sans-serif" font-size="10" fill="#64748B">Mar 9</text>

  <text x="220" y="366" font-family="system-ui, sans-serif" font-size="10" fill="#0F172A">Lease_Agreement.pdf</text>
  <rect x="380" y="356" width="58" height="18" rx="9" fill="#DCFCE7"/>
  <text x="392" y="369" font-family="system-ui, sans-serif" font-size="9" fill="#16A34A">Complete</text>
  <text x="480" y="366" font-family="system-ui, sans-serif" font-size="10" fill="#64748B">Mar 8</text>

  <text x="220" y="396" font-family="system-ui, sans-serif" font-size="10" fill="#0F172A">Tax_W2_2024.pdf</text>
  <rect x="380" y="386" width="58" height="18" rx="9" fill="#DCFCE7"/>
  <text x="392" y="399" font-family="system-ui, sans-serif" font-size="9" fill="#16A34A">Complete</text>
  <text x="480" y="396" font-family="system-ui, sans-serif" font-size="10" fill="#64748B">Mar 7</text>

  <!-- Processing status card -->
  <rect x="596" y="188" width="184" height="290" rx="10" fill="white" stroke="#E2E8F0" stroke-width="1"/>
  <text x="612" y="214" font-family="system-ui, sans-serif" font-size="13" font-weight="600" fill="#0F172A">Processing</text>

  <!-- Progress bars -->
  <text x="612" y="248" font-family="system-ui, sans-serif" font-size="9" fill="#64748B">Report_Q4.pdf</text>
  <rect x="612" y="254" width="152" height="6" rx="3" fill="#E2E8F0"/>
  <rect x="612" y="254" width="106" height="6" rx="3" fill="#2563EB"/>
  <text x="724" y="248" font-family="system-ui, sans-serif" font-size="9" fill="#2563EB">70%</text>

  <text x="612" y="286" font-family="system-ui, sans-serif" font-size="9" fill="#64748B">Batch_invoices.zip</text>
  <rect x="612" y="292" width="152" height="6" rx="3" fill="#E2E8F0"/>
  <rect x="612" y="292" width="61" height="6" rx="3" fill="#6366F1"/>
  <text x="724" y="286" font-family="system-ui, sans-serif" font-size="9" fill="#6366F1">40%</text>

  <text x="612" y="324" font-family="system-ui, sans-serif" font-size="9" fill="#64748B">HR_docs.pdf</text>
  <rect x="612" y="330" width="152" height="6" rx="3" fill="#E2E8F0"/>
  <rect x="612" y="330" width="23" height="6" rx="3" fill="#3B82F6"/>
  <text x="724" y="324" font-family="system-ui, sans-serif" font-size="9" fill="#3B82F6">15%</text>
</svg>
