<svg xmlns="http://www.w3.org/2000/svg" viewBox="0 0 800 500" fill="none">
  <!-- Window frame -->
  <rect width="800" height="500" rx="12" fill="#F8FAFC" stroke="#E2E8F0" stroke-width="1"/>
  <rect width="800" height="44" rx="12" fill="white"/>
  <circle cx="24" cy="22" r="5" fill="#EF4444"/>
  <circle cx="42" cy="22" r="5" fill="#F59E0B"/>
  <circle cx="60" cy="22" r="5" fill="#22C55E"/>
  <line x1="0" y1="44" x2="800" y2="44" stroke="#E2E8F0" stroke-width="1"/>

  <!-- Breadcrumb -->
  <text x="24" y="68" font-family="system-ui, sans-serif" font-size="11" fill="#64748B">Documents</text>
  <text x="92" y="68" font-family="system-ui, sans-serif" font-size="11" fill="#64748B">/</text>
  <text x="102" y="68" font-family="system-ui, sans-serif" font-size="11" font-weight="600" fill="#0F172A">Invoice_2024_001.pdf</text>

  <!-- Left panel: Document viewer -->
  <rect x="16" y="82" width="380" height="400" rx="8" fill="white" stroke="#E2E8F0" stroke-width="1"/>
  <text x="32" y="106" font-family="system-ui, sans-serif" font-size="12" font-weight="600" fill="#0F172A">Document Preview</text>

  <!-- Simulated document -->
  <rect x="48" y="118" width="316" height="350" rx="4" fill="#FAFAFA" stroke="#E2E8F0" stroke-width="0.5"/>

  <!-- Document header area -->
  <rect x="64" y="130" width="180" height="12" rx="2" fill="#E2E8F0"/>
  <rect x="64" y="150" width="120" height="8" rx="2" fill="#E2E8F0" opacity="0.6"/>

  <!-- Highlighted extracted field 1 -->
  <rect x="64" y="180" width="100" height="14" rx="2" fill="#2563EB" opacity="0.1" stroke="#2563EB" stroke-width="1"/>
  <rect x="64" y="182" width="80" height="10" rx="1" fill="#E2E8F0"/>

  <!-- Highlighted extracted field 2 -->
  <rect x="200" y="180" width="80" height="14" rx="2" fill="#6366F1" opacity="0.1" stroke="#6366F1" stroke-width="1"/>
  <rect x="202" y="182" width="60" height="10" rx="1" fill="#E2E8F0"/>

  <!-- Document lines -->
  <rect x="64" y="210" width="280" height="6" rx="1" fill="#E2E8F0" opacity="0.5"/>
  <rect x="64" y="222" width="260" height="6" rx="1" fill="#E2E8F0" opacity="0.5"/>
  <rect x="64" y="234" width="240" height="6" rx="1" fill="#E2E8F0" opacity="0.5"/>

  <!-- Highlighted field 3 - table area -->
  <rect x="64" y="260" width="280" height="80" rx="4" fill="#2563EB" opacity="0.05" stroke="#2563EB" stroke-width="1" stroke-dasharray="4 2"/>
  <rect x="72" y="268" width="264" height="12" rx="1" fill="#2563EB" opacity="0.1"/>
  <rect x="72" y="286" width="264" height="8" rx="1" fill="#E2E8F0" opacity="0.5"/>
  <rect x="72" y="300" width="264" height="8" rx="1" fill="#E2E8F0" opacity="0.5"/>
  <rect x="72" y="314" width="264" height="8" rx="1" fill="#E2E8F0" opacity="0.5"/>
  <rect x="72" y="328" width="180" height="8" rx="1" fill="#E2E8F0" opacity="0.5"/>

  <!-- More lines -->
  <rect x="64" y="360" width="280" height="6" rx="1" fill="#E2E8F0" opacity="0.5"/>
  <rect x="64" y="372" width="200" height="6" rx="1" fill="#E2E8F0" opacity="0.5"/>

  <!-- Highlighted field 4 -->
  <rect x="64" y="400" width="140" height="14" rx="2" fill="#22C55E" opacity="0.1" stroke="#22C55E" stroke-width="1"/>
  <rect x="66" y="402" width="100" height="10" rx="1" fill="#E2E8F0"/>

  <!-- Right panel: Extracted data -->
  <rect x="408" y="82" width="376" height="400" rx="8" fill="white" stroke="#E2E8F0" stroke-width="1"/>
  <text x="424" y="106" font-family="system-ui, sans-serif" font-size="12" font-weight="600" fill="#0F172A">Extracted Data</text>

  <!-- Confidence bar -->
  <rect x="600" y="94" width="80" height="18" rx="9" fill="#DCFCE7"/>
  <text x="614" y="107" font-family="system-ui, sans-serif" font-size="9" fill="#16A34A">98.7% conf.</text>

  <!-- Data fields -->
  <rect x="424" y="120" width="344" height="348" rx="6" fill="#F8FAFC"/>

  <!-- Field rows -->
  <text x="440" y="146" font-family="system-ui, sans-serif" font-size="9" fill="#64748B">VENDOR NAME</text>
  <text x="440" y="162" font-family="system-ui, sans-serif" font-size="11" font-weight="500" fill="#0F172A">Acme Corporation LLC</text>
  <rect x="700" y="148" width="52" height="16" rx="4" fill="#DCFCE7"/>
  <text x="710" y="160" font-family="system-ui, sans-serif" font-size="8" fill="#16A34A">99.2%</text>
  <line x1="440" y1="176" x2="752" y2="176" stroke="#E2E8F0" stroke-width="0.5"/>

  <text x="440" y="196" font-family="system-ui, sans-serif" font-size="9" fill="#64748B">INVOICE NUMBER</text>
  <text x="440" y="212" font-family="system-ui, sans-serif" font-size="11" font-weight="500" fill="#0F172A">INV-2024-001847</text>
  <rect x="700" y="198" width="52" height="16" rx="4" fill="#DCFCE7"/>
  <text x="710" y="210" font-family="system-ui, sans-serif" font-size="8" fill="#16A34A">99.8%</text>
  <line x1="440" y1="226" x2="752" y2="226" stroke="#E2E8F0" stroke-width="0.5"/>

  <text x="440" y="246" font-family="system-ui, sans-serif" font-size="9" fill="#64748B">INVOICE DATE</text>
  <text x="440" y="262" font-family="system-ui, sans-serif" font-size="11" font-weight="500" fill="#0F172A">March 10, 2024</text>
  <rect x="700" y="248" width="52" height="16" rx="4" fill="#DCFCE7"/>
  <text x="710" y="260" font-family="system-ui, sans-serif" font-size="8" fill="#16A34A">98.5%</text>
  <line x1="440" y1="276" x2="752" y2="276" stroke="#E2E8F0" stroke-width="0.5"/>

  <text x="440" y="296" font-family="system-ui, sans-serif" font-size="9" fill="#64748B">TOTAL AMOUNT</text>
  <text x="440" y="312" font-family="system-ui, sans-serif" font-size="11" font-weight="500" fill="#0F172A">$12,450.00</text>
  <rect x="700" y="298" width="52" height="16" rx="4" fill="#DCFCE7"/>
  <text x="710" y="310" font-family="system-ui, sans-serif" font-size="8" fill="#16A34A">99.1%</text>
  <line x1="440" y1="326" x2="752" y2="326" stroke="#E2E8F0" stroke-width="0.5"/>

  <text x="440" y="346" font-family="system-ui, sans-serif" font-size="9" fill="#64748B">PAYMENT TERMS</text>
  <text x="440" y="362" font-family="system-ui, sans-serif" font-size="11" font-weight="500" fill="#0F172A">Net 30</text>
  <rect x="700" y="348" width="52" height="16" rx="4" fill="#FEF3C7"/>
  <text x="710" y="360" font-family="system-ui, sans-serif" font-size="8" fill="#D97706">92.3%</text>
  <line x1="440" y1="376" x2="752" y2="376" stroke="#E2E8F0" stroke-width="0.5"/>

  <text x="440" y="396" font-family="system-ui, sans-serif" font-size="9" fill="#64748B">LINE ITEMS</text>
  <text x="440" y="412" font-family="system-ui, sans-serif" font-size="11" font-weight="500" fill="#0F172A">4 items extracted</text>
  <rect x="700" y="398" width="52" height="16" rx="4" fill="#DCFCE7"/>
  <text x="710" y="410" font-family="system-ui, sans-serif" font-size="8" fill="#16A34A">97.6%</text>

  <!-- Action buttons -->
  <rect x="424" y="440" width="80" height="28" rx="6" fill="#2563EB"/>
  <text x="444" y="458" font-family="system-ui, sans-serif" font-size="10" font-weight="600" fill="white">Approve</text>

  <rect x="516" y="440" width="64" height="28" rx="6" fill="white" stroke="#E2E8F0" stroke-width="1"/>
  <text x="534" y="458" font-family="system-ui, sans-serif" font-size="10" fill="#64748B">Edit</text>

  <rect x="592" y="440" width="80" height="28" rx="6" fill="white" stroke="#E2E8F0" stroke-width="1"/>
  <text x="610" y="458" font-family="system-ui, sans-serif" font-size="10" fill="#64748B">Re-run</text>
</svg>
