<svg xmlns="http://www.w3.org/2000/svg" viewBox="0 0 800 500" fill="none">
  <!-- Window frame -->
  <rect width="800" height="500" rx="12" fill="#F8FAFC" stroke="#E2E8F0" stroke-width="1"/>
  <rect width="800" height="44" rx="12" fill="white"/>
  <circle cx="24" cy="22" r="5" fill="#EF4444"/>
  <circle cx="42" cy="22" r="5" fill="#F59E0B"/>
  <circle cx="60" cy="22" r="5" fill="#22C55E"/>
  <line x1="0" y1="44" x2="800" y2="44" stroke="#E2E8F0" stroke-width="1"/>

  <!-- Header -->
  <text x="24" y="76" font-family="system-ui, sans-serif" font-size="16" font-weight="700" fill="#0F172A">Export Data</text>

  <!-- Format options -->
  <rect x="24" y="92" width="752" height="48" rx="8" fill="white" stroke="#E2E8F0" stroke-width="1"/>
  <text x="40" y="120" font-family="system-ui, sans-serif" font-size="10" font-weight="600" fill="#64748B">FORMAT:</text>

  <rect x="100" y="102" width="60" height="28" rx="6" fill="#2563EB"/>
  <text x="118" y="120" font-family="system-ui, sans-serif" font-size="10" font-weight="600" fill="white">Excel</text>

  <rect x="170" y="102" width="52" height="28" rx="6" fill="white" stroke="#E2E8F0" stroke-width="1"/>
  <text x="184" y="120" font-family="system-ui, sans-serif" font-size="10" fill="#64748B">CSV</text>

  <rect x="232" y="102" width="56" height="28" rx="6" fill="white" stroke="#E2E8F0" stroke-width="1"/>
  <text x="246" y="120" font-family="system-ui, sans-serif" font-size="10" fill="#64748B">JSON</text>

  <rect x="298" y="102" width="48" height="28" rx="6" fill="white" stroke="#E2E8F0" stroke-width="1"/>
  <text x="312" y="120" font-family="system-ui, sans-serif" font-size="10" fill="#64748B">API</text>

  <!-- Download button -->
  <rect x="660" y="100" width="100" height="32" rx="8" fill="#2563EB"/>
  <text x="682" y="120" font-family="system-ui, sans-serif" font-size="11" font-weight="600" fill="white">Download</text>

  <!-- Excel-like table preview -->
  <rect x="24" y="152" width="752" height="332" rx="10" fill="white" stroke="#E2E8F0" stroke-width="1"/>

  <!-- Table header -->
  <rect x="24" y="152" width="752" height="34" rx="10" fill="#F8FAFC"/>
  <line x1="24" y1="186" x2="776" y2="186" stroke="#E2E8F0" stroke-width="1"/>

  <!-- Column headers -->
  <text x="44" y="174" font-family="system-ui, sans-serif" font-size="10" font-weight="600" fill="#64748B">Row</text>
  <line x1="80" y1="152" x2="80" y2="484" stroke="#E2E8F0" stroke-width="0.5"/>
  <text x="96" y="174" font-family="system-ui, sans-serif" font-size="10" font-weight="600" fill="#64748B">Document</text>
  <line x1="250" y1="152" x2="250" y2="484" stroke="#E2E8F0" stroke-width="0.5"/>
  <text x="266" y="174" font-family="system-ui, sans-serif" font-size="10" font-weight="600" fill="#64748B">Vendor</text>
  <line x1="400" y1="152" x2="400" y2="484" stroke="#E2E8F0" stroke-width="0.5"/>
  <text x="416" y="174" font-family="system-ui, sans-serif" font-size="10" font-weight="600" fill="#64748B">Invoice No.</text>
  <line x1="530" y1="152" x2="530" y2="484" stroke="#E2E8F0" stroke-width="0.5"/>
  <text x="546" y="174" font-family="system-ui, sans-serif" font-size="10" font-weight="600" fill="#64748B">Date</text>
  <line x1="640" y1="152" x2="640" y2="484" stroke="#E2E8F0" stroke-width="0.5"/>
  <text x="656" y="174" font-family="system-ui, sans-serif" font-size="10" font-weight="600" fill="#64748B">Amount</text>

  <!-- Row 1 -->
  <text x="54" y="208" font-family="system-ui, sans-serif" font-size="10" fill="#64748B">1</text>
  <text x="96" y="208" font-family="system-ui, sans-serif" font-size="10" fill="#0F172A">Invoice_001.pdf</text>
  <text x="266" y="208" font-family="system-ui, sans-serif" font-size="10" fill="#0F172A">Acme Corp</text>
  <text x="416" y="208" font-family="system-ui, sans-serif" font-size="10" fill="#0F172A">INV-001847</text>
  <text x="546" y="208" font-family="system-ui, sans-serif" font-size="10" fill="#0F172A">2024-03-10</text>
  <text x="656" y="208" font-family="system-ui, sans-serif" font-size="10" fill="#0F172A">$12,450.00</text>
  <line x1="24" y1="220" x2="776" y2="220" stroke="#E2E8F0" stroke-width="0.5"/>

  <!-- Row 2 -->
  <text x="54" y="242" font-family="system-ui, sans-serif" font-size="10" fill="#64748B">2</text>
  <text x="96" y="242" font-family="system-ui, sans-serif" font-size="10" fill="#0F172A">Invoice_002.pdf</text>
  <text x="266" y="242" font-family="system-ui, sans-serif" font-size="10" fill="#0F172A">Beta Inc</text>
  <text x="416" y="242" font-family="system-ui, sans-serif" font-size="10" fill="#0F172A">INV-002103</text>
  <text x="546" y="242" font-family="system-ui, sans-serif" font-size="10" fill="#0F172A">2024-03-09</text>
  <text x="656" y="242" font-family="system-ui, sans-serif" font-size="10" fill="#0F172A">$8,750.00</text>
  <line x1="24" y1="254" x2="776" y2="254" stroke="#E2E8F0" stroke-width="0.5"/>

  <!-- Row 3 -->
  <text x="54" y="276" font-family="system-ui, sans-serif" font-size="10" fill="#64748B">3</text>
  <text x="96" y="276" font-family="system-ui, sans-serif" font-size="10" fill="#0F172A">Invoice_003.pdf</text>
  <text x="266" y="276" font-family="system-ui, sans-serif" font-size="10" fill="#0F172A">Gamma LLC</text>
  <text x="416" y="276" font-family="system-ui, sans-serif" font-size="10" fill="#0F172A">INV-003891</text>
  <text x="546" y="276" font-family="system-ui, sans-serif" font-size="10" fill="#0F172A">2024-03-08</text>
  <text x="656" y="276" font-family="system-ui, sans-serif" font-size="10" fill="#0F172A">$5,200.00</text>
  <line x1="24" y1="288" x2="776" y2="288" stroke="#E2E8F0" stroke-width="0.5"/>

  <!-- Row 4 (selected) -->
  <rect x="24" y="292" width="752" height="30" fill="#EFF6FF"/>
  <text x="54" y="312" font-family="system-ui, sans-serif" font-size="10" fill="#64748B">4</text>
  <text x="96" y="312" font-family="system-ui, sans-serif" font-size="10" fill="#0F172A">Invoice_004.pdf</text>
  <text x="266" y="312" font-family="system-ui, sans-serif" font-size="10" fill="#0F172A">Delta Corp</text>
  <text x="416" y="312" font-family="system-ui, sans-serif" font-size="10" fill="#0F172A">INV-004562</text>
  <text x="546" y="312" font-family="system-ui, sans-serif" font-size="10" fill="#0F172A">2024-03-07</text>
  <text x="656" y="312" font-family="system-ui, sans-serif" font-size="10" fill="#0F172A">$3,890.00</text>
  <line x1="24" y1="322" x2="776" y2="322" stroke="#E2E8F0" stroke-width="0.5"/>

  <!-- Row 5 -->
  <text x="54" y="344" font-family="system-ui, sans-serif" font-size="10" fill="#64748B">5</text>
  <text x="96" y="344" font-family="system-ui, sans-serif" font-size="10" fill="#0F172A">Invoice_005.pdf</text>
  <text x="266" y="344" font-family="system-ui, sans-serif" font-size="10" fill="#0F172A">Epsilon Ltd</text>
  <text x="416" y="344" font-family="system-ui, sans-serif" font-size="10" fill="#0F172A">INV-005234</text>
  <text x="546" y="344" font-family="system-ui, sans-serif" font-size="10" fill="#0F172A">2024-03-06</text>
  <text x="656" y="344" font-family="system-ui, sans-serif" font-size="10" fill="#0F172A">$15,600.00</text>
  <line x1="24" y1="356" x2="776" y2="356" stroke="#E2E8F0" stroke-width="0.5"/>

  <!-- Row 6 -->
  <text x="54" y="378" font-family="system-ui, sans-serif" font-size="10" fill="#64748B">6</text>
  <text x="96" y="378" font-family="system-ui, sans-serif" font-size="10" fill="#0F172A">Invoice_006.pdf</text>
  <text x="266" y="378" font-family="system-ui, sans-serif" font-size="10" fill="#0F172A">Zeta Inc</text>
  <text x="416" y="378" font-family="system-ui, sans-serif" font-size="10" fill="#0F172A">INV-006778</text>
  <text x="546" y="378" font-family="system-ui, sans-serif" font-size="10" fill="#0F172A">2024-03-05</text>
  <text x="656" y="378" font-family="system-ui, sans-serif" font-size="10" fill="#0F172A">$7,320.00</text>
  <line x1="24" y1="390" x2="776" y2="390" stroke="#E2E8F0" stroke-width="0.5"/>

  <!-- Summary bar -->
  <rect x="24" y="446" width="752" height="38" rx="10" fill="#F8FAFC" stroke="#E2E8F0" stroke-width="1"/>
  <text x="44" y="470" font-family="system-ui, sans-serif" font-size="10" fill="#64748B">Showing 6 of 1,247 documents</text>
  <text x="580" y="470" font-family="system-ui, sans-serif" font-size="10" font-weight="600" fill="#0F172A">Total: $53,210.00</text>
</svg>
