<svg xmlns="http://www.w3.org/2000/svg" viewBox="0 0 48 48" fill="none" stroke-linecap="round" stroke-linejoin="round">
  <!-- Brain outline -->
  <path d="M24 8C18 8 14 12 14 16C12 16 10 18 10 21C10 24 12 26 14 26C14 30 18 34 24 34C30 34 34 30 34 26C36 26 38 24 38 21C38 18 36 16 34 16C34 12 30 8 24 8Z" fill="#EFF6FF" stroke="#2563EB" stroke-width="1.5"/>
  <!-- Circuit lines -->
  <line x1="20" y1="18" x2="20" y2="28" stroke="#6366F1" stroke-width="1.5"/>
  <line x1="28" y1="18" x2="28" y2="28" stroke="#6366F1" stroke-width="1.5"/>
  <line x1="18" y1="23" x2="30" y2="23" stroke="#6366F1" stroke-width="1.5"/>
  <!-- Circuit nodes -->
  <circle cx="20" cy="18" r="2" fill="#6366F1"/>
  <circle cx="28" cy="18" r="2" fill="#6366F1"/>
  <circle cx="20" cy="28" r="2" fill="#2563EB"/>
  <circle cx="28" cy="28" r="2" fill="#2563EB"/>
  <circle cx="24" cy="23" r="2" fill="#3B82F6"/>
  <!-- Data stream arrows -->
  <path d="M24 36V42" stroke="#2563EB" stroke-width="1.5"/>
  <path d="M21 40L24 43L27 40" stroke="#2563EB" stroke-width="1.5"/>
</svg>
