<svg xmlns="http://www.w3.org/2000/svg" viewBox="0 0 48 48" fill="none" stroke-linecap="round" stroke-linejoin="round">
  <!-- Chat bubble -->
  <path d="M8 10H36C37.1 10 38 10.9 38 12V28C38 29.1 37.1 30 36 30H20L14 36V30H8C6.9 30 6 29.1 6 28V12C6 10.9 6.9 10 8 10Z" fill="#EFF6FF" stroke="#2563EB" stroke-width="1.5"/>
  <!-- Data lines in bubble -->
  <line x1="12" y1="16" x2="28" y2="16" stroke="#64748B" stroke-width="1.5"/>
  <line x1="12" y1="20" x2="24" y2="20" stroke="#64748B" stroke-width="1.5"/>
  <line x1="12" y1="24" x2="20" y2="24" stroke="#64748B" stroke-width="1.5"/>
  <!-- Sparkle/AI indicator -->
  <path d="M36 6L37.5 9.5L41 11L37.5 12.5L36 16L34.5 12.5L31 11L34.5 9.5Z" fill="#6366F1"/>
  <path d="M42 16L43 18L45 19L43 20L42 22L41 20L39 19L41 18Z" fill="#6366F1" opacity="0.6"/>
  <!-- Structured answer dots -->
  <circle cx="32" cy="16" r="1.5" fill="#2563EB"/>
  <circle cx="32" cy="20" r="1.5" fill="#2563EB"/>
  <circle cx="32" cy="24" r="1.5" fill="#2563EB"/>
</svg>
