<svg xmlns="http://www.w3.org/2000/svg" viewBox="0 0 48 48" fill="none" stroke-linecap="round" stroke-linejoin="round">
  <!-- User 1 -->
  <circle cx="16" cy="14" r="5" fill="#EFF6FF" stroke="#2563EB" stroke-width="1.5"/>
  <path d="M8 30C8 25 11.6 21 16 21C20.4 21 24 25 24 30" stroke="#2563EB" stroke-width="1.5" fill="#EFF6FF"/>
  <!-- User 2 (behind) -->
  <circle cx="28" cy="16" r="4" fill="#EEF2FF" stroke="#6366F1" stroke-width="1.5"/>
  <path d="M22 30C22 26 24.7 23 28 23C31.3 23 34 26 34 30" stroke="#6366F1" stroke-width="1.5" fill="#EEF2FF"/>
  <!-- Shield -->
  <path d="M36 32L42 34V38C42 41 39.5 43.5 36 45C32.5 43.5 30 41 30 38V34L36 32Z" fill="#EFF6FF" stroke="#2563EB" stroke-width="1.5"/>
  <!-- Shield check -->
  <path d="M33.5 38L35.5 40L39 36.5" stroke="#22C55E" stroke-width="1.5"/>
</svg>
